Coordinates
version=1
nRows=19
nColumns=36
inDegrees=yes

Units are S.I. units (second, meters, Newtons, ...)
If the header above contains a line with 'inDegrees', this indicates whether rotational values are in degrees (yes) or radians (no).

endheader
time	pelvis_tilt	pelvis_list	pelvis_rotation	pelvis_tx	pelvis_ty	pelvis_tz	hip_flexion_r	hip_adduction_r	hip_rotation_r	knee_angle_r	knee_angle_r_beta	ankle_angle_r	subtalar_angle_r	mtp_angle_r	hip_flexion_l	hip_adduction_l	hip_rotation_l	knee_angle_l	knee_angle_l_beta	ankle_angle_l	subtalar_angle_l	mtp_angle_l	lumbar_extension	lumbar_bending	lumbar_rotation	arm_flex_r	arm_add_r	arm_rot_r	elbow_flex_r	pro_sup_r	arm_flex_l	arm_add_l	arm_rot_l	elbow_flex_l	pro_sup_l
      1.26000000	     -2.15604789	      3.47270062	      3.72398860	     -0.43819998	      1.15795096	     -0.55835493	     18.99859847	     -5.53864911	    -18.89202194	      8.18155388	      0.14279505	    -24.65336359	      6.13732497	     -7.47632025	     19.77269572	     -1.37703543	     -3.16153158	      5.43227232	      0.09481104	    -26.23195933	      1.52072848	     -7.47632025	     -9.67989385	     -0.73839516	    -16.38580236	    119.92478249	    -64.09713401	     72.82610781	    118.73957100	    103.66318148	    -85.58190243	    -51.05138894	   -141.34650856	    131.20981782	     81.71220258
      1.27000000	     -1.54618140	      3.27543483	      4.11167304	     -0.42644201	      1.13465250	     -0.55882119	     19.56783147	     -5.84255486	    -19.02527079	     11.22111801	      0.19584546	    -26.00774463	      4.88550583	     -7.47877284	     20.57106041	     -1.59654887	     -2.93801645	      8.26692117	      0.14428499	    -26.28752255	      2.43824974	     -7.47877284	    -10.38770994	     -0.62208198	    -15.99577907	    118.93542244	    -67.48173010	     68.96632491	    121.84129782	    101.61935350	    -83.63063674	    -49.35260863	   -141.27042019	    132.95981029	     81.27845828
      1.28000000	     -0.87904673	      2.98523621	      4.39871457	     -0.41532137	      1.11088591	     -0.55871896	     20.29555682	     -5.82795533	    -17.62024369	     14.87452460	      0.25960943	    -25.55739491	      3.00693783	     -7.48440595	     21.58652396	     -1.95478396	     -2.73709680	     11.70701252	      0.20432591	    -26.94271956	      3.69835626	     -7.48440595	    -11.26568123	     -0.64240132	    -16.78686423	    109.75959666	    -69.03600143	     56.71696763	    123.99445601	    104.34581883	    -81.65252164	    -45.42631479	   -141.38183416	    134.90126730	     81.40176854
      1.29000000	     -0.28549778	      2.63018513	      4.55531263	     -0.40486166	      1.08643851	     -0.55841477	     21.49151562	     -5.55514928	    -15.36540074	     20.32616584	      0.35475852	    -19.24609392	      0.52766829	     -7.48796954	     23.06758794	     -2.46798695	     -3.06226011	     16.14441865	      0.28177326	    -26.00524514	      5.07216174	     -7.48796954	    -12.22248173	     -0.52171834	    -16.54327687	     99.52743973	    -71.28801341	     43.54557002	    126.89346349	    104.67558891	    -78.67718513	    -42.80981965	   -139.91227924	    137.10517489	     81.50903362
      1.30000000	      0.30779288	      2.59597017	      4.68225885	     -0.39470917	      1.06125936	     -0.55805751	     23.01038431	     -5.48518660	    -13.15777639	     27.61243086	      0.48192783	     -7.00363387	     -1.39200416	     -7.49196594	     24.83278878	     -2.64975371	     -3.63771713	     22.09913963	      0.38570275	    -20.40069178	      4.55626832	     -7.49196594	    -13.21266000	     -0.78263164	    -16.17925559	     85.18011472	    -72.61518031	     26.38721466	    129.51797382	    107.21462444	    -75.38006942	    -40.34548965	   -137.59226592	    139.34840193	     81.06911847
      1.31000000	      1.01252507	      2.48877352	      4.74450589	     -0.38523096	      1.03560639	     -0.55763940	     24.46705972	     -5.09942015	    -11.40649138	     34.68721729	      0.60540615	      4.49212473	     -3.40710102	     -7.49460604	     26.91099486	     -2.99996113	     -4.31137380	     29.83892021	      0.52078740	     -9.45506431	      2.86097846	     -7.49460604	    -14.36789812	     -0.90111207	    -15.37717343	     68.82828646	    -72.78167580	      7.11515194	    132.16317708	    107.79601010	    -71.56649186	    -38.34670865	   -133.83576741	    141.61696948	     80.26210876
      1.32000000	      1.46729408	      1.87635278	      4.56567283	     -0.37738606	      1.01053596	     -0.55713354	     26.10779872	     -3.88812518	    -10.04647855	     40.22438131	      0.70204789	     11.71625299	     -6.65738583	     -7.49570367	     29.49845282	     -3.83947871	     -4.36585160	     37.79344432	      0.65962004	      1.22426831	      1.00682855	     -7.49570367	    -15.35119945	     -0.40420547	    -14.23557596	     53.76978277	    -71.07324876	    -10.72619794	    134.92180841	    107.27592283	    -67.01488459	    -36.01845729	   -127.96143115	    143.89136717	     80.59418471
      1.33000000	      0.80405534	      0.91646799	      4.12851975	     -0.37177619	      0.98666732	     -0.55684242	     29.10633916	     -2.16883262	     -8.59536750	     44.94470740	      0.78443313	     15.34011441	    -10.89642828	     -7.49643959	     33.25828140	     -4.71809438	     -3.58794038	     44.60146064	      0.77844234	      7.58471905	     -1.44588341	     -7.49643959	    -15.28872288	      0.49609649	    -12.26566484	     40.17354418	    -68.20416738	    -26.78709856	    137.97581758	    108.22170311	    -61.30774163	    -33.93753717	   -118.76638252	    146.05478119	     83.17819810
      1.34000000	     -0.85228632	      0.13029666	      3.48651151	     -0.36751224	      0.96462634	     -0.55672212	     33.70482194	     -0.52051422	     -6.44037144	     50.35398734	      0.87884287	     17.31611453	    -14.38541724	     -7.49781102	     37.66966096	     -5.13277078	     -2.38319641	     49.96815832	      0.87210888	     10.38356696	     -5.16838873	     -7.49781102	    -14.31300035	      1.21166416	     -9.59234475	     27.72722773	    -64.29778318	    -40.78114519	    141.18344133	    109.21651501	    -54.81197994	    -32.08992222	   -106.73318158	    146.95593733	     92.94071865
      1.35000000	     -2.37547480	     -0.55715010	      2.84591528	     -0.36330805	      0.94496458	     -0.55632675	     38.48994890	      1.20865669	     -4.00853093	     56.31727491	      0.98292187	     17.95859873	    -16.90091874	     -7.49834690	     41.64515142	     -5.46699786	     -1.02803704	     54.83685578	      0.95708368	     12.69010344	     -7.80846369	     -7.49834690	    -13.57522803	      1.89920133	     -7.01227694	     18.96341825	    -59.40634267	    -50.24689592	    143.83969981	    110.82727985	    -48.54270898	    -29.72991414	    -93.62278414	    147.01246420	     97.93462740
      1.36000000	     -2.66125610	     -1.06746730	      2.26083902	     -0.35901351	      0.92846179	     -0.55544450	     41.52426559	      2.85561710	     -2.12451063	     61.63313259	      1.07570109	     19.56792366	    -17.72995810	     -7.49872965	     43.99777767	     -5.69505806	      0.37134619	     59.32631964	      1.03543961	     15.25295517	     -9.56467517	     -7.49872965	    -14.27348880	      2.45859401	     -6.83965927	     19.26361513	    -53.21467415	    -48.31370420	    145.40550385	    104.88858442	    -45.02409941	    -24.77747782	    -84.42046940	    146.06724536	     95.20483026
      1.37000000	     -2.59071660	     -1.54615439	      1.81184678	     -0.35468615	      0.91475306	     -0.55469358	     43.21514010	      4.34403267	     -1.14229833	     65.14914534	      1.13706709	     19.30144891	    -20.16956128	     -7.49903498	     45.64549439	     -5.82841518	      1.66327367	     63.13559839	      1.10192407	     16.58935797	    -11.26055419	     -7.49903498	    -15.54316030	      3.27895666	     -3.59378051	     12.80501499	    -49.40176594	    -55.27965861	    147.15830985	    112.23165183	    -38.76641602	    -23.33154661	    -71.78002014	    141.74290556	    104.37780602
      1.38000000	     -2.19170053	     -1.47848082	      1.48934022	     -0.35105614	      0.90287690	     -0.55445620	     43.88766969	      5.13252714	     -0.30182173	     67.71018389	      1.18176565	     20.82519301	    -21.48008045	     -7.49908450	     46.37621001	     -5.46790827	      2.29952216	     65.92579889	      1.15062225	     17.99758018	    -12.85625562	     -7.49908450	    -17.13696942	      3.49690290	     -2.91016201	     12.83926837	    -44.68887996	    -52.55851470	    147.54873130	    111.54353950	    -35.31484046	    -20.22409973	    -64.11416934	    137.60507601	    103.83458985
      1.39000000	     -2.29167517	     -1.15650310	      1.32412581	     -0.34783182	      0.89152932	     -0.55505220	     44.88488594	      5.36612356	      0.32557289	     69.98054586	      1.22139094	     22.63311069	    -22.25182976	     -7.49914959	     47.41312291	     -4.78243940	      2.59703420	     68.20892766	      1.19047037	     18.82778382	    -14.69819854	     -7.49914959	    -18.19929952	      3.55505872	     -1.62444482	     11.50528559	    -40.77538582	    -51.29579636	    147.35498769	    112.30164317	    -31.45263597	    -18.44200093	    -56.94411314	    132.66743757	    104.41685027
      1.40000000	     -2.85154200	     -0.90958558	      1.20060166	     -0.34523685	      0.88065980	     -0.55619806	     46.37435178	      5.46786269	      0.75196034	     72.12685572	      1.25885111	     23.92711613	    -22.97405337	     -7.49916358	     48.99291376	     -4.16987031	      2.88134248	     70.44245584	      1.22945279	     19.84751497	    -15.50975442	     -7.49916358	    -18.73009765	      3.78744265	     -0.91820629	     11.62354575	    -37.44777265	    -47.86393185	    146.00127717	    112.26502314	    -28.32810995	    -16.74739451	    -51.48433022	    127.38480194	    104.09428204
      1.41000000	     -3.84729019	     -0.90916359	      1.02194846	     -0.34323714	      0.87051985	     -0.55751924	     48.33584366	      5.68691993	      1.01240536	     74.07440605	      1.29284228	     24.93543210	    -23.08112455	     -7.49917777	     51.11463157	     -3.80722069	      3.32728142	     72.62363226	      1.26752150	     20.43122171	    -16.00386814	     -7.49917777	    -18.78683843	      4.26727246	     -0.11176342	     11.99129101	    -34.85881833	    -44.34343174	    143.61359472	    112.14380100	    -25.35261937	    -15.35214862	    -46.46239950	    121.64499100	    103.51161343
      1.42000000	     -4.90604006	     -0.96125094	      0.69036329	     -0.34152215	      0.86159597	     -0.55851415	     50.36862736	      5.97476254	      1.26891527	     75.85961377	      1.32400003	     25.70053209	    -22.77963103	     -7.49919418	     53.17383895	     -3.75265148	      3.53834307	     74.52515384	      1.30070931	     20.88814346	    -16.31603951	     -7.49919418	    -18.77725907	      4.70005708	      0.60850822	     12.65153982	    -32.93885139	    -40.41929673	    140.31927978	    111.89440465	    -22.80249612	    -14.41253445	    -41.91194706	    115.52873617	    102.56265965
      1.43000000	     -5.76487736	     -0.86478985	      0.24117640	     -0.33976343	      0.85401055	     -0.55905941	     52.13559751	      6.21852178	      1.65422475	     77.50757648	      1.35276240	     26.26759404	    -22.36835109	     -7.49920710	     54.76660599	     -3.88242350	      3.35163698	     76.03940971	      1.32713806	     21.43074753	    -16.49431129	     -7.49920710	    -19.00105836	      4.88528411	      1.13102115	     13.60315856	    -31.64829408	    -36.05264452	    136.61922228	    111.82355002	    -20.64518443	    -14.05221897	    -37.81435550	    109.56871613	    101.56903134
      1.44000000	     -6.44084760	     -0.67231295	     -0.25819604	     -0.33810811	      0.84752487	     -0.55953486	     53.57677563	      6.31363512	      1.94829270	     78.88720516	      1.37684147	     26.88414711	    -21.87911527	     -7.49922142	     55.96194170	     -4.05040597	      3.02996373	     77.28682421	      1.34890955	     22.07435457	    -16.43216675	     -7.49922142	    -19.45062758	      4.92943213	      1.52271867	     15.08044403	    -30.92839473	    -31.36823373	    132.90615978	    111.79795123	    -18.78367658	    -14.00738509	    -34.00479968	    104.47160487	    100.51567941
